<svg id="Layer_1" data-name="Layer 1" xmlns="http://www.w3.org/2000/svg" viewBox="0 0 900 900"><defs><style>.cls-1{fill:#efefe7;}.cls-2{fill:#3e3e40;}</style></defs><rect class="cls-1" x="-10" y="-9" width="920" height="920"/><path class="cls-2" d="M643,326.5V379h23V359.5c0-21.8.7-25.3,5.9-27.9,3.4-1.8,8.4-2.1,11.2-.6,4.3,2.4,4.9,5.7,4.9,27.5V379h23.1l-.3-25.3c-.3-23.8-.4-25.4-2.5-29.4-7.2-13.4-27.1-16.5-38.6-5.9l-3.7,3.4V274H643Z"/><path class="cls-2" d="M599,304v10h-8v19h8v46h23V333h13V314H622V294H599Z"/><path class="cls-2" d="M747.5,313.4c-10.6,2.6-18.5,8.9-22.7,18.1-1.9,4.2-2.3,6.7-2.3,15,0,8.9.3,10.6,2.8,15.7,5.4,11,15.9,17.3,30.6,18.5,13.5,1,26-3.8,32.3-12.6a21.71,21.71,0,0,0,3.3-6.4l.7-2.7H781.1c-9.7,0-11.1.2-12,1.9-1.6,2.8-6.5,4.4-12.2,3.9-6.5-.7-10.8-4.5-11.6-10.6l-.6-4.2h48.6l-.5-7.3c-.5-7.6-3.7-15.8-8.1-20.5C777,313.9,760.9,310.1,747.5,313.4Zm21.2,17.9c1.8,2,3.3,4.1,3.3,4.7s-5,1-13.5,1c-12.4,0-13.4-.1-12.8-1.8,1.9-5.4,7.3-8.4,14.2-7.9C764.6,327.6,765.8,328.2,768.7,331.3Z"/><path class="cls-2" d="M656,409v10H786V399H656Z"/><path class="cls-2" d="M395,538.5V591h23V564.7l12.6,13.2L443.2,591h32.3l-17.4-17.4-17.4-17.5,7.4-6.9c4.1-3.8,11.3-10.4,16.1-14.8l8.7-7.9-15.7-.3-15.6-.3-11.8,11.8L418,549.5V486H395Z"/><path class="cls-2" d="M532,508.9v23l-5.6-3.4a28.74,28.74,0,0,0-21.4-3.6c-31.2,6.7-35.4,51-6.1,65.2,3.6,1.8,6.4,2.3,12.6,2.3,8.6,0,12.6-1.4,17.8-6.2l2.7-2.6V591h23V486H532Zm-7.5,36.5c4.7,2,7.5,6.9,7.5,13.1,0,8.9-5.6,14.5-14.5,14.5S503,567.4,503,558.6C503,547.3,513.5,540.8,524.5,545.4Z"/><path class="cls-2" d="M260.5,525.4c-10.6,2.6-18.5,8.9-22.7,18.1-1.9,4.2-2.3,6.7-2.3,15,0,8.9.3,10.6,2.8,15.7,5.4,11,15.9,17.3,30.6,18.5,13.5,1,26-3.8,32.3-12.6a21.71,21.71,0,0,0,3.3-6.4l.7-2.7H294.1c-9.7,0-11.1.2-12,1.9-1.6,2.8-6.5,4.4-12.2,3.9-6.5-.7-10.8-4.5-11.6-10.6l-.6-4.2h48.6l-.5-7.3c-.5-7.6-3.7-15.8-8.1-20.5C290,525.9,273.9,522.1,260.5,525.4Zm21.2,17.9c1.8,2,3.3,4.1,3.3,4.7s-5,1-13.5,1c-12.4,0-13.4-.1-12.8-1.8,1.9-5.4,7.3-8.4,14.2-7.9C277.6,539.6,278.8,540.2,281.7,543.3Z"/><path class="cls-2" d="M338.5,525.4c-10.6,2.6-18.5,8.9-22.7,18.1-1.9,4.2-2.3,6.7-2.3,15,0,8.9.3,10.6,2.8,15.7,5.4,11,15.9,17.3,30.6,18.5,13.5,1,26-3.8,32.3-12.6a21.71,21.71,0,0,0,3.3-6.4l.7-2.7H372.1c-9.7,0-11.1.2-12,1.9-1.6,2.8-6.5,4.4-12.2,3.9-6.5-.7-10.8-4.5-11.6-10.6l-.6-4.2h48.6l-.5-7.3c-.5-7.6-3.7-15.8-8.1-20.5C368,525.9,351.9,522.1,338.5,525.4Zm21.2,17.9c1.8,2,3.3,4.1,3.3,4.7s-5,1-13.5,1c-12.4,0-13.4-.1-12.8-1.8,1.9-5.4,7.3-8.4,14.2-7.9C355.6,539.6,356.8,540.2,359.7,543.3Z"/><path class="cls-2" d="M588,525.3c-9.4,2.6-16.3,8.8-20.9,18.7-2.2,4.6-2.6,6.9-2.6,14.5s.4,9.9,2.7,14.6c3.5,7.6,8.5,12.9,15.5,16.4,4.9,2.5,7,2.9,13.8,2.9,8.6,0,12.6-1.4,17.8-6.2l2.7-2.6V591h23V526H617v3.2c0,2.9-.1,3-1.7,1.6C609.1,525.3,596.6,522.8,588,525.3Zm22,20.5c6.9,3.5,9.9,14.8,5.4,21-6.1,8.2-20.4,8.1-25.5-.2-2.6-4.2-2.5-11.9.1-16.1C593.8,544.4,602.9,542.2,610,545.8Z"/><path class="cls-2" d="M758.7,525c-13.8,3.5-21.9,15.1-18.7,26.9,1.7,6.5,5.5,9.5,15.2,12.1,4.6,1.2,9.3,2.8,10.6,3.6,4.7,3.1,1.1,8.4-5.8,8.4-2.9,0-7.8-1.7-16.5-5.6-.5-.2-2.8,3-4.9,7.2-4.6,9-4.7,8.8,6.3,12.6,8.4,2.9,22.1,3.1,29.6.5,13.7-4.7,20.3-18.4,14.5-30.1-2.6-5.4-7-8.2-16-10.2-10.3-2.3-13.2-5.1-9.2-8.7,2.3-2.1,8.2-2.1,13.7-.2a17.29,17.29,0,0,0,4.1,1.2c.1-.1,1.9-3.3,3.9-7.1,4.2-7.5,4.1-7.7-2.5-9.6C778,524.5,763.2,523.9,758.7,525Z"/><path class="cls-2" d="M121.2,558.5l17,32.6,7.5-.3,7.5-.3,7.5-16.5c4.1-9.1,7.8-16.8,8.2-17.3s4.3,7.1,8.6,16.8l7.9,17.5h15.1l5.2-10.3c2.9-5.6,10.4-20.2,16.8-32.5L234.1,526H208.9l-4.7,10.2c-2.6,5.7-6.3,13.6-8.2,17.7l-3.6,7.4-8.1-17.4-8.1-17.4-6.9-.3-6.8-.3L154.6,543c-4.4,9.3-8.2,17-8.6,17s-4.2-7.7-8.5-17l-7.8-17H104.3Z"/><path class="cls-2" d="M661.7,553.7c8.6,15.3,15.6,28.2,15.6,28.8s-4.8,9.9-10.7,20.7-10.6,20-10.6,20.3,5.7.4,12.7.3l12.8-.3,25.7-48.4c14.2-26.7,25.8-48.6,25.8-48.8s-5.8-.3-12.9-.3H707.3l-8.4,16.4c-4.6,9-8.7,16.2-9.1,16s-4.4-7.7-8.9-16.4l-8.1-16H646.2Z"/></svg>